<svg width="15" height="23" viewBox="0 0 15 23" fill="none" xmlns="http://www.w3.org/2000/svg">
<path d="M8.60636 4.97204L8.77915 6.55476H13.1535L12.7906 9.7202H7.65084L7.31324 6.55476H7.31728L7.14449 4.97204L7.14245 4.9528L6.73233 1.10753L6.63806 0.223877H0.911133V1.8066H5.34549L5.68308 4.97204H1.54059L3.37779 20.9956C3.42214 21.3781 3.59285 21.7299 3.85795 21.9851C4.12305 22.2403 4.46437 22.3814 4.81801 22.382H11.5204C11.8741 22.3814 12.2154 22.2403 12.4806 21.9851C12.7457 21.7299 12.9164 21.3781 12.9608 20.9956L14.7978 4.97204H8.60636ZM3.1849 6.55476H5.85188L6.18947 9.7202H3.54781L3.1849 6.55476ZM11.521 20.7992H4.81797L3.72926 11.3029H6.35826L6.99121 17.2381H8.45258L7.81959 11.3029H12.6093L11.521 20.7992Z" fill="white"/>
</svg>
