<svg width="22" height="24" viewBox="0 0 22 24" fill="none" xmlns="http://www.w3.org/2000/svg">
<path fill-rule="evenodd" clip-rule="evenodd" d="M10.6968 18.6316L5.32416 21.8811C4.8952 22.1272 4.36673 21.953 4.13024 21.4875V21.4875C4.06183 21.3433 4.02492 21.1834 4.02246 21.0206V6.62247C4.02246 3.87647 5.72213 2.77808 8.16799 2.77808H13.9137C16.2849 2.77808 18.0592 3.80325 18.0592 6.4394V21.0206C18.0592 21.2804 17.9657 21.5295 17.7994 21.7132C17.633 21.8969 17.4073 22 17.1721 22C17.022 21.9974 16.8745 21.9567 16.7409 21.8811L11.3352 18.6316C11.136 18.5128 10.896 18.5128 10.6968 18.6316Z" stroke="#67686D" stroke-width="2" stroke-linecap="round" stroke-linejoin="round"/>
</svg>
